<svg xmlns="http://www.w3.org/2000/svg" viewBox="0 0 1200 240" preserveAspectRatio="xMaxYMid slice">
<defs>
<linearGradient id="g" x1="0" y1="0" x2="1" y2="1"><stop offset="0" stop-color="#5a8dff" stop-opacity=".95"/><stop offset="1" stop-color="#5a8dff" stop-opacity=".45"/></linearGradient>
<radialGradient id="glow" cx=".5" cy=".5" r=".5"><stop offset="0" stop-color="#5a8dff" stop-opacity=".34"/><stop offset=".35" stop-color="#5a8dff" stop-opacity=".18"/><stop offset=".7" stop-color="#5a8dff" stop-opacity=".05"/><stop offset="1" stop-color="#5a8dff" stop-opacity="0"/></radialGradient>
</defs>
<circle cx="930" cy="120" r="150" fill="url(#glow)"/><line x1="300" y1="0" x2="300" y2="240" fill="none" stroke="#5a8dff" stroke-opacity="0.34" stroke-width="2"/><line x1="292" y1="40" x2="308" y2="40" fill="none" stroke="#5a8dff" stroke-opacity="0.3" stroke-width="2"/><line x1="292" y1="80" x2="308" y2="80" fill="none" stroke="#5a8dff" stroke-opacity="0.3" stroke-width="2"/><line x1="292" y1="160" x2="308" y2="160" fill="none" stroke="#5a8dff" stroke-opacity="0.3" stroke-width="2"/><line x1="292" y1="200" x2="308" y2="200" fill="none" stroke="#5a8dff" stroke-opacity="0.3" stroke-width="2"/><line x1="370" y1="0" x2="370" y2="240" fill="none" stroke="#5a8dff" stroke-opacity="0.22" stroke-width="2"/><line x1="362" y1="40" x2="378" y2="40" fill="none" stroke="#5a8dff" stroke-opacity="0.3" stroke-width="2"/><line x1="362" y1="80" x2="378" y2="80" fill="none" stroke="#5a8dff" stroke-opacity="0.3" stroke-width="2"/><line x1="362" y1="160" x2="378" y2="160" fill="none" stroke="#5a8dff" stroke-opacity="0.3" stroke-width="2"/><line x1="362" y1="200" x2="378" y2="200" fill="none" stroke="#5a8dff" stroke-opacity="0.3" stroke-width="2"/><line x1="440" y1="0" x2="440" y2="240" fill="none" stroke="#5a8dff" stroke-opacity="0.34" stroke-width="2"/><line x1="432" y1="40" x2="448" y2="40" fill="none" stroke="#5a8dff" stroke-opacity="0.3" stroke-width="2"/><line x1="432" y1="80" x2="448" y2="80" fill="none" stroke="#5a8dff" stroke-opacity="0.3" stroke-width="2"/><line x1="432" y1="160" x2="448" y2="160" fill="none" stroke="#5a8dff" stroke-opacity="0.3" stroke-width="2"/><line x1="432" y1="200" x2="448" y2="200" fill="none" stroke="#5a8dff" stroke-opacity="0.3" stroke-width="2"/><line x1="510" y1="0" x2="510" y2="240" fill="none" stroke="#5a8dff" stroke-opacity="0.22" stroke-width="2"/><line x1="502" y1="40" x2="518" y2="40" fill="none" stroke="#5a8dff" stroke-opacity="0.3" stroke-width="2"/><line x1="502" y1="80" x2="518" y2="80" fill="none" stroke="#5a8dff" stroke-opacity="0.3" stroke-width="2"/><line x1="502" y1="160" x2="518" y2="160" fill="none" stroke="#5a8dff" stroke-opacity="0.3" stroke-width="2"/><line x1="502" y1="200" x2="518" y2="200" fill="none" stroke="#5a8dff" stroke-opacity="0.3" stroke-width="2"/><line x1="580" y1="0" x2="580" y2="240" fill="none" stroke="#5a8dff" stroke-opacity="0.34" stroke-width="2"/><line x1="572" y1="40" x2="588" y2="40" fill="none" stroke="#5a8dff" stroke-opacity="0.3" stroke-width="2"/><line x1="572" y1="80" x2="588" y2="80" fill="none" stroke="#5a8dff" stroke-opacity="0.3" stroke-width="2"/><line x1="572" y1="160" x2="588" y2="160" fill="none" stroke="#5a8dff" stroke-opacity="0.3" stroke-width="2"/><line x1="572" y1="200" x2="588" y2="200" fill="none" stroke="#5a8dff" stroke-opacity="0.3" stroke-width="2"/><line x1="650" y1="0" x2="650" y2="240" fill="none" stroke="#5a8dff" stroke-opacity="0.22" stroke-width="2"/><line x1="642" y1="40" x2="658" y2="40" fill="none" stroke="#5a8dff" stroke-opacity="0.3" stroke-width="2"/><line x1="642" y1="80" x2="658" y2="80" fill="none" stroke="#5a8dff" stroke-opacity="0.3" stroke-width="2"/><line x1="642" y1="160" x2="658" y2="160" fill="none" stroke="#5a8dff" stroke-opacity="0.3" stroke-width="2"/><line x1="642" y1="200" x2="658" y2="200" fill="none" stroke="#5a8dff" stroke-opacity="0.3" stroke-width="2"/><line x1="720" y1="0" x2="720" y2="240" fill="none" stroke="#5a8dff" stroke-opacity="0.34" stroke-width="2"/><line x1="712" y1="40" x2="728" y2="40" fill="none" stroke="#5a8dff" stroke-opacity="0.3" stroke-width="2"/><line x1="712" y1="80" x2="728" y2="80" fill="none" stroke="#5a8dff" stroke-opacity="0.3" stroke-width="2"/><line x1="712" y1="160" x2="728" y2="160" fill="none" stroke="#5a8dff" stroke-opacity="0.3" stroke-width="2"/><line x1="712" y1="200" x2="728" y2="200" fill="none" stroke="#5a8dff" stroke-opacity="0.3" stroke-width="2"/><line x1="790" y1="0" x2="790" y2="240" fill="none" stroke="#5a8dff" stroke-opacity="0.22" stroke-width="2"/><line x1="782" y1="40" x2="798" y2="40" fill="none" stroke="#5a8dff" stroke-opacity="0.3" stroke-width="2"/><line x1="782" y1="80" x2="798" y2="80" fill="none" stroke="#5a8dff" stroke-opacity="0.3" stroke-width="2"/><line x1="782" y1="160" x2="798" y2="160" fill="none" stroke="#5a8dff" stroke-opacity="0.3" stroke-width="2"/><line x1="782" y1="200" x2="798" y2="200" fill="none" stroke="#5a8dff" stroke-opacity="0.3" stroke-width="2"/><line x1="860" y1="0" x2="860" y2="240" fill="none" stroke="#5a8dff" stroke-opacity="0.34" stroke-width="2"/><line x1="852" y1="40" x2="868" y2="40" fill="none" stroke="#5a8dff" stroke-opacity="0.3" stroke-width="2"/><line x1="852" y1="80" x2="868" y2="80" fill="none" stroke="#5a8dff" stroke-opacity="0.3" stroke-width="2"/><line x1="852" y1="160" x2="868" y2="160" fill="none" stroke="#5a8dff" stroke-opacity="0.3" stroke-width="2"/><line x1="852" y1="200" x2="868" y2="200" fill="none" stroke="#5a8dff" stroke-opacity="0.3" stroke-width="2"/><line x1="930" y1="0" x2="930" y2="240" fill="none" stroke="#5a8dff" stroke-opacity="0.22" stroke-width="2"/><line x1="922" y1="40" x2="938" y2="40" fill="none" stroke="#5a8dff" stroke-opacity="0.3" stroke-width="2"/><line x1="922" y1="80" x2="938" y2="80" fill="none" stroke="#5a8dff" stroke-opacity="0.3" stroke-width="2"/><line x1="922" y1="160" x2="938" y2="160" fill="none" stroke="#5a8dff" stroke-opacity="0.3" stroke-width="2"/><line x1="922" y1="200" x2="938" y2="200" fill="none" stroke="#5a8dff" stroke-opacity="0.3" stroke-width="2"/><line x1="1000" y1="0" x2="1000" y2="240" fill="none" stroke="#5a8dff" stroke-opacity="0.34" stroke-width="2"/><line x1="992" y1="40" x2="1008" y2="40" fill="none" stroke="#5a8dff" stroke-opacity="0.3" stroke-width="2"/><line x1="992" y1="80" x2="1008" y2="80" fill="none" stroke="#5a8dff" stroke-opacity="0.3" stroke-width="2"/><line x1="992" y1="160" x2="1008" y2="160" fill="none" stroke="#5a8dff" stroke-opacity="0.3" stroke-width="2"/><line x1="992" y1="200" x2="1008" y2="200" fill="none" stroke="#5a8dff" stroke-opacity="0.3" stroke-width="2"/><line x1="1070" y1="0" x2="1070" y2="240" fill="none" stroke="#5a8dff" stroke-opacity="0.22" stroke-width="2"/><line x1="1062" y1="40" x2="1078" y2="40" fill="none" stroke="#5a8dff" stroke-opacity="0.3" stroke-width="2"/><line x1="1062" y1="80" x2="1078" y2="80" fill="none" stroke="#5a8dff" stroke-opacity="0.3" stroke-width="2"/><line x1="1062" y1="160" x2="1078" y2="160" fill="none" stroke="#5a8dff" stroke-opacity="0.3" stroke-width="2"/><line x1="1062" y1="200" x2="1078" y2="200" fill="none" stroke="#5a8dff" stroke-opacity="0.3" stroke-width="2"/><line x1="1140" y1="0" x2="1140" y2="240" fill="none" stroke="#5a8dff" stroke-opacity="0.34" stroke-width="2"/><line x1="1132" y1="40" x2="1148" y2="40" fill="none" stroke="#5a8dff" stroke-opacity="0.3" stroke-width="2"/><line x1="1132" y1="80" x2="1148" y2="80" fill="none" stroke="#5a8dff" stroke-opacity="0.3" stroke-width="2"/><line x1="1132" y1="160" x2="1148" y2="160" fill="none" stroke="#5a8dff" stroke-opacity="0.3" stroke-width="2"/><line x1="1132" y1="200" x2="1148" y2="200" fill="none" stroke="#5a8dff" stroke-opacity="0.3" stroke-width="2"/><path d="M520 215 C 700 40, 860 40, 980 120" fill="none" stroke="#5a8dff" stroke-opacity="0.5" stroke-width="3" stroke-dasharray="3 9" stroke-linecap="round"/><g transform="translate(980 118) rotate(-24)"><ellipse rx="92" ry="52" fill="url(#g)"/><ellipse rx="92" ry="52" fill="none" stroke="#fff" stroke-opacity=".35" stroke-width="2"/><path d="M-62 -34 C -50 -14 -50 14 -62 34 M62 -34 C 50 -14 50 14 62 34" fill="none" stroke="#fff" stroke-opacity=".55" stroke-width="5" stroke-linecap="round"/><line x1="-34" y1="0" x2="34" y2="0" stroke="#fff" stroke-opacity=".8" stroke-width="5" stroke-linecap="round"/><line x1="-22" y1="-13" x2="-22" y2="13" stroke="#fff" stroke-opacity=".8" stroke-width="4" stroke-linecap="round"/><line x1="-8" y1="-13" x2="-8" y2="13" stroke="#fff" stroke-opacity=".8" stroke-width="4" stroke-linecap="round"/><line x1="8" y1="-13" x2="8" y2="13" stroke="#fff" stroke-opacity=".8" stroke-width="4" stroke-linecap="round"/><line x1="22" y1="-13" x2="22" y2="13" stroke="#fff" stroke-opacity=".8" stroke-width="4" stroke-linecap="round"/></g>
</svg>