<svg xmlns="http://www.w3.org/2000/svg" viewBox="0 0 1200 240" preserveAspectRatio="xMaxYMid slice">
<defs>
<linearGradient id="g" x1="0" y1="0" x2="1" y2="1"><stop offset="0" stop-color="#35d0e6" stop-opacity=".95"/><stop offset="1" stop-color="#35d0e6" stop-opacity=".45"/></linearGradient>
<radialGradient id="glow" cx=".5" cy=".5" r=".5"><stop offset="0" stop-color="#35d0e6" stop-opacity=".34"/><stop offset=".35" stop-color="#35d0e6" stop-opacity=".18"/><stop offset=".7" stop-color="#35d0e6" stop-opacity=".05"/><stop offset="1" stop-color="#35d0e6" stop-opacity="0"/></radialGradient>
</defs>
<circle cx="880" cy="120" r="200" fill="url(#glow)"/><rect x="380" y="24" width="900" height="192" rx="90" fill="none" stroke="#35d0e6" stroke-opacity="0.35" stroke-width="3"/><line x1="700" y1="24" x2="700" y2="216" stroke="#ff5a5a" stroke-opacity=".6" stroke-width="5"/><circle cx="700" cy="120" r="46" fill="none" stroke="#35d0e6" stroke-opacity="0.4" stroke-width="2"/><circle cx="540" cy="120" r="40" fill="none" stroke="#ff5a5a" stroke-opacity=".45" stroke-width="2"/><circle cx="880" cy="120" r="40" fill="none" stroke="#ff5a5a" stroke-opacity=".45" stroke-width="2"/><line x1="1020" y1="24" x2="1020" y2="216" stroke="#35d0e6" stroke-opacity=".5" stroke-width="3"/><path d="M1020 90 A 30 30 0 0 0 1020 150" fill="none" stroke="#35d0e6" stroke-opacity="0.5" stroke-width="3"/><line x1="500" y1="170" x2="610" y2="170" fill="none" stroke="#35d0e6" stroke-opacity="0.5" stroke-width="3" stroke-linecap="round"/><line x1="540" y1="162" x2="650" y2="162" fill="none" stroke="#35d0e6" stroke-opacity="0.41000000000000003" stroke-width="3" stroke-linecap="round"/><line x1="580" y1="154" x2="690" y2="154" fill="none" stroke="#35d0e6" stroke-opacity="0.32" stroke-width="3" stroke-linecap="round"/><line x1="620" y1="146" x2="730" y2="146" fill="none" stroke="#35d0e6" stroke-opacity="0.22999999999999998" stroke-width="3" stroke-linecap="round"/><g transform="translate(850 130) rotate(-8)"><ellipse rx="86" ry="30" cy="14" fill="#000" fill-opacity=".35"/><ellipse rx="86" ry="30" fill="url(#g)"/><rect x="-86" y="-26" width="172" height="26" fill="url(#g)"/><ellipse rx="86" ry="30" cy="-26" fill="url(#g)"/><ellipse rx="86" ry="30" cy="-26" fill="none" stroke="#fff" stroke-opacity=".45" stroke-width="2"/></g>
</svg>